<svg viewbox="0 0 76 132" xmlns="http://www.w3.org/2000/svg"><path class="st0" d="M37.5 76h1v55.5h-1zm.5-11c-14.9 0-27-12.1-27-27s12.1-27 27-27 27 12.1 27 27-12.1 27-27 27zm0-53c-14.3 0-26 11.7-26 26s11.7 26 26 26 26-11.7 26-26-11.7-26-26-26zm1.9 64v-1c1.3-.1 2.6-.2 3.9-.4l.2 1c-1.4.2-2.8.3-4.1.4zm-4.1-.1c-1.3-.1-2.7-.2-4-.4l.2-1c1.3.2 2.6.4 3.9.4l-.1 1zm12.1-1.2l-.3-1c1.3-.3 2.5-.8 3.7-1.2l.4.9c-1.2.5-2.5 1-3.8 1.3zm-20.1-.1c-1.3-.4-2.6-.8-3.8-1.3l.4-.9c1.2.5 2.5.9 3.7 1.3l-.3.9zm27.6-2.8l-.4-.9c1.2-.6 2.3-1.3 3.4-2l.6.8c-1.2.8-2.4 1.5-3.6 2.1zm-35.1-.2c-1.2-.6-2.4-1.3-3.5-2.1l.6-.8c1.1.7 2.2 1.4 3.4 2l-.5.9zm41.9-4.3l-.6-.8c1-.8 2-1.7 2.9-2.7l.7.7c-1 1.1-2 2-3 2.8zm-48.6-.2c-1-.9-2-1.8-3-2.8l.7-.7c.9.9 1.9 1.8 2.9 2.7l-.6.8zm54.2-5.5l-.8-.7c.8-1 1.6-2.1 2.3-3.2l.8.5c-.7 1.2-1.4 2.3-2.3 3.4zM8 61.3c-.8-1.1-1.6-2.2-2.3-3.3l.9-.5c.7 1.1 1.4 2.2 2.3 3.2l-.9.6zm64.1-6.6l-.9-.4c.6-1.2 1.1-2.4 1.5-3.6l.9.3c-.3 1.2-.9 2.5-1.5 3.7zm-68.4-.3c-.6-1.2-1.1-2.5-1.6-3.7l.9-.3c.4 1.2.9 2.5 1.5 3.6l-.8.4zm71.2-7.3l-1-.2c.3-1.3.6-2.6.7-3.9l1 .1c-.1 1.4-.4 2.7-.7 4zM1 46.8c-.3-1.3-.6-2.6-.7-4l1-.1c.2 1.3.4 2.6.7 3.9l-1 .2zm75-7.7h-1V38c0-1 0-1.9-.1-2.9l1-.1c.1 1 .1 2 .1 3v1.1zm-76-.3V38c0-1.1 0-2.2.1-3.3l1 .1C1 35.9 1 36.9 1 38v.8H0zm74.4-7.6c-.2-1.3-.5-2.6-.9-3.8l1-.3c.4 1.3.7 2.6 1 3.9l-1.1.2zm-72.7-.3l-1-.2c.3-1.3.6-2.6 1-3.9l1 .3c-.5 1.2-.8 2.5-1 3.8zm70.4-7.2c-.5-1.2-1.1-2.4-1.7-3.5l.9-.5c.7 1.2 1.2 2.4 1.8 3.6l-1 .4zM4 23.4l-.9-.4c.5-1.2 1.1-2.5 1.8-3.6l.9.5C5.1 21 4.5 22.2 4 23.4zm64.3-6.6c-.8-1.1-1.6-2.1-2.4-3.1l.8-.7c.9 1 1.7 2.1 2.5 3.2l-.9.6zm-60.4-.3L7 16c.8-1.1 1.6-2.2 2.5-3.2l.7.7c-.8.9-1.6 2-2.3 3zm55.2-5.7c-1-.9-2-1.7-3-2.5l.6-.8c1.1.8 2.1 1.7 3.1 2.6l-.7.7zm-50-.2l-.7-.7c1-.9 2-1.8 3.1-2.6l.6.8c-1 .8-2 1.7-3 2.5zm43.7-4.5c-1.1-.7-2.3-1.3-3.5-1.8l.4-.9c1.2.6 2.4 1.2 3.6 1.9l-.5.8zM19.4 6l-.5-.9c1.2-.7 2.4-1.3 3.6-1.8l.5.9c-1.2.5-2.4 1.1-3.6 1.8zm30.2-3.1c-1.2-.4-2.5-.8-3.8-1l.2-1c1.3.3 2.6.6 3.9 1.1l-.3.9zm-23-.1l-.3-1c1.3-.4 2.6-.8 3.9-1l.2 1c-1.2.2-2.5.6-3.8 1zm15.3-1.6c-2.5-.3-5.1-.3-7.6 0l-.1-1c2.6-.3 5.2-.2 7.8 0l-.1 1z"/></svg>
